<?xml version="1.0" encoding="utf-8"?>
<?xml-stylesheet type="text/xsl" href="rss1.xsl"?>
<rss version="2.0" xmlns:atom="http://www.w3.org/2005/Atom" xmlns:content="http://purl.org/rss/1.0/modules/content/" xmlns:dc="http://purl.org/dc/elements/1.1/" xmlns:media="http://search.yahoo.com/mrss/">
<channel>
 <title>Getty</title>
 <link>http://www.gettyimg.com/</link>
 <atom:link href="http://www.gettyimg.com/" rel="self" type="application/rss+xml" />

 
                <item>
                <title><![CDATA[【Cinema Center】MOVIE - Poltergeist.II.The.Other.Side.1986.1080p.MAX.WEB-DL.DDP5.1.x264-Samuel]]></title>
                <link><![CDATA[https://sharemania.us/threads/poltergeist-ii-the-other-side-1986-1080p-max-web-dl-ddp5-1-x264-samuel.247556/]]></link>
                <description><![CDATA[<article>
<blockquote class="messageText SelectQuoteContainer ugc baseHtml">
<div style="text-align: center"><b><span style="font-size: 26px">Poltergeist II: The Other Side</span></b><br>
<img src="https://i.imgur.com/OKNC3R9.png" class="bbCodeImage LbImage" alt="[​IMG]" data-url="https://i.imgur.com/OKNC3R9.png" style=""><br>
<b><a href="https://i.imgur.com/uXVm2Zy.png" target="_blank" class="externalLink" rel="nofollow">Alternate Artwork 1</a></b> | <b><a href="https://i.imgur.com/tTGCO4E.jpeg" target="_blank" class="externalLink" rel="nofollow">Alternate Artwork 2</a></b> | <b><a href="https://i.imgur.com/ucIURKL.jpeg" target="_blank" class="externalLink" rel="nofollow">Poster 1</a></b> | <b><a href="https://i.imgur.com/p4i1Cnq.jpeg" target="_blank" class="externalLink" rel="nofollow">Poster 2</a></b> | <b><a href="https://i.imgur.com/CS9mS6F.jpeg" target="_blank" class="externalLink" rel="nofollow">Thumbnail</a></b> | <b><a href="https://i.imgur.com/232HWik.jpeg" target="_blank" class="externalLink" rel="nofollow">Key Art</a></b><br>
<br>
PG‑13 • 1h 31m • 1986<br>
Haunted Horror • Horror<br>
<br>
<div class="bbCodeBlock bbCodeQuote">
<aside>
<blockquote class="quoteContainer"><div class="quote"><b><span style="font-size: 15px"><span style="font-family: 'Arial'">Description</span></span></b><br>
They're back! The phantoms that haunt the Freeling family return with a vengeance.</div><div class="quoteExpand">Click to expand...</div></blockquote>
</aside>
</div>
<div class="bbCodeBlock bbCodeQuote">
<aside>
<blockquote class="quoteContainer"><div class="quote"><b><span style="font-size: 15px"><span style="font-family: 'Arial'">Details</span></span></b><br>
<b>Rating Information</b><br>
PG‑13 Adult Content, Mild Violence, Adult Language<br>
<br>
<b>Subtitle Languages</b><br>
Spanish - CC, English - CC<br>
<br>
<b>Audio Languages</b><br>
English - Original, Spanish<br>
<br>
<b>Starring</b><br>
Jobeth Williams, Craig Nelson, Heather O'Rourke, Zelda Rubinstein, Oliver Robins, Julian Beck, Will Sampson, Geraldine Fitzgerald<br>
<br>
<b>Director</b><br>
Brian Gibson<br>
<br>
<b>Writers</b><br>
Michael Grais, Mark Victor<br>
<br>
<b>Producers</b><br>
Michael Grais, Mark Victor, Freddie Fields</div><div class="quoteExpand quoteCut">Click to expand...</div></blockquote>
</aside>
</div>
<div class="bbCodeBlock bbCodeQuote">
<aside>
<blockquote class="quoteContainer"><div class="quote"><b><span style="font-size: 15px"><span style="font-family: 'Arial'">Source</span></span></b><br>
<img src="https://i.imgur.com/CCXkKzZ.png" class="bbCodeImage LbImage" alt="[​IMG]" data-url="https://i.imgur.com/CCXkKzZ.png" style=""></div><div class="quoteExpand">Click to expand...</div></blockquote>
</aside>
</div>
<div class="bbCodeBlock bbCodeQuote">
<aside>
<blockquote class="quoteContainer"><div class="quote"><b><span style="font-size: 15px">Release Name</span></b><br>
Poltergeist.II.The.Other.Side.1986.1080p.MAX.WEB-DL.DDP5.1.x264-Samuel</div><div class="quoteExpand">Click to expand...</div></blockquote>
</aside>
</div>
<div class="ToggleTriggerAnchor bbCodeSpoilerContainer">
<button type="button" class="button bbCodeSpoilerButton ToggleTrigger Tooltip JsOnly" data-target="> .SpoilerTarget"><span>Spoiler: <span class="SpoilerTitle">Media Information</span></span></button>
<div class="SpoilerTarget bbCodeSpoilerText">General<br>
Complete name : Poltergeist.II.The.Other.Side.1986.1080p.MAX.WEB-DL.DDP5.1.x264-Samuel.mkv<br>
Format : Matroska<br>
Format version : Version 4<br>
File size : 6.21 GiB<br>
Duration : 1 h 30 min<br>
Overall bit rate mode : Variable<br>
Overall bit rate : 9 799 kb/s<br>
Frame rate : 23.976 FPS<br>
Encoded date : 2024-06-17 06:20:48 UTC<br>
Writing application : mkvmerge v85.0 ('Shame For You') 64-bit<br>
Writing library : libebml v1.4.5 + libmatroska v1.7.1<br>
<br>
Video<br>
ID : 1<br>
Format : AVC<br>
Format/Info : Advanced Video Codec<br>
Format profile : High@L4.1<br>
Format settings : CABAC / 4 Ref Frames<br>
Format settings, CABAC : Yes<br>
Format settings, Reference frames : 4 frames<br>
Codec ID : V_MPEG4/ISO/AVC<br>
Duration : 1 h 30 min<br>
Bit rate mode : Variable<br>
Bit rate : 9 412 kb/s<br>
Maximum bit rate : 10 000 kb/s<br>
Width : 1 920 pixels<br>
Height : 818 pixels<br>
Display aspect ratio : 2.35:1<br>
Frame rate mode : Constant<br>
Frame rate : 23.976 (24000/1001) FPS<br>
Color space : YUV<br>
Chroma subsampling : 4:2:0<br>
Bit depth : 8 bits<br>
Scan type : Progressive<br>
Bits/(Pixel*Frame) : 0.250<br>
Stream size : 5.96 GiB (96%)<br>
Writing library : x264 core 164<br>
Encoding settings : cabac=1 / ref=4 / deblock=1:0:0 / analyse=0x3:0x133 / me=umh / subme=10 / psy=1 / psy_rd=1.00:0.00 / mixed_ref=1 / me_range=24 / chroma_me=1 / trellis=2 / 8x8dct=1 / cqm=0 / deadzone=21,11 / fast_pskip=1 / chroma_qp_offset=-2 / threads=24 / lookahead_threads=2 / sliced_threads=0 / nr=0 / decimate=1 / interlaced=0 / bluray_compat=0 / stitchable=1 / constrained_intra=0 / bframes=3 / b_pyramid=2 / b_adapt=2 / b_bias=0 / direct=3 / weightb=1 / open_gop=0 / weightp=2 / keyint=96 / keyint_min=49 / scenecut=0 / intra_refresh=0 / rc_lookahead=96 / rc=crf / mbtree=1 / crf=20.0 / qcomp=0.60 / qpmin=0 / qpmax=69 / qpstep=4 / vbv_maxrate=10000 / vbv_bufsize=40000 / crf_max=0.0 / nal_hrd=vbr / filler=0 / ip_ratio=1.40 / aq=1:1.00<br>
Default : Yes<br>
Forced : No<br>
Color range : Limited<br>
Color primaries : BT.709<br>
Transfer characteristics : BT.709<br>
Matrix coefficients : BT.709<br>
<br>
Audio #1<br>
ID : 2<br>
Format : E-AC-3<br>
Format/Info : Enhanced AC-3<br>
Commercial name : Dolby Digital Plus<br>
Codec ID : A_EAC3<br>
Duration : 1 h 30 min<br>
Bit rate mode : Constant<br>
Bit rate : 256 kb/s<br>
Channel(s) : 6 channels<br>
Channel layout : L R C LFE Ls Rs<br>
Sampling rate : 48.0 kHz<br>
Frame rate : 31.250 FPS (1536 SPF)<br>
Compression mode : Lossy<br>
Stream size : 166 MiB (3%)<br>
Language : English<br>
Service kind : Complete Main<br>
Default : Yes<br>
Forced : No<br>
Dialog Normalization : -23 dB<br>
compr : -0.28 dB<br>
dmixmod : Lo/Ro<br>
ltrtcmixlev : -3.0 dB<br>
ltrtsurmixlev : -3.0 dB<br>
lorocmixlev : -3.0 dB<br>
lorosurmixlev : -3.0 dB<br>
dialnorm_Average : -23 dB<br>
dialnorm_Minimum : -23 dB<br>
dialnorm_Maximum : -23 dB<br>
<br>
Audio #2<br>
ID : 3<br>
Format : E-AC-3<br>
Format/Info : Enhanced AC-3<br>
Commercial name : Dolby Digital Plus<br>
Codec ID : A_EAC3<br>
Duration : 1 h 30 min<br>
Bit rate mode : Constant<br>
Bit rate : 128 kb/s<br>
Channel(s) : 2 channels<br>
Channel layout : L R<br>
Sampling rate : 48.0 kHz<br>
Frame rate : 31.250 FPS (1536 SPF)<br>
Compression mode : Lossy<br>
Stream size : 83.0 MiB (1%)<br>
Title : Latin American<br>
Language : Spanish<br>
Service kind : Complete Main<br>
Default : No<br>
Forced : No<br>
Dialog Normalization : -23 dB<br>
compr : -0.28 dB<br>
dialnorm_Average : -23 dB<br>
dialnorm_Minimum : -23 dB<br>
dialnorm_Maximum : -23 dB<br>
<br>
Text #1<br>
ID : 4<br>
Format : UTF-8<br>
Codec ID : S_TEXT/UTF8<br>
Codec ID/Info : UTF-8 Plain Text<br>
Duration : 1 h 26 min<br>
Bit rate : 47 b/s<br>
Frame rate : 0.258 FPS<br>
Count of elements : 1344<br>
Stream size : 30.3 KiB (0%)<br>
Language : English<br>
Default : No<br>
Forced : No<br>
<br>
Text #2<br>
ID : 5<br>
Format : UTF-8<br>
Codec ID : S_TEXT/UTF8<br>
Codec ID/Info : UTF-8 Plain Text<br>
Duration : 1 h 26 min<br>
Bit rate : 44 b/s<br>
Frame rate : 0.234 FPS<br>
Count of elements : 1208<br>
Stream size : 28.3 KiB (0%)<br>
Title : Latin American<br>
Language : Spanish<br>
Default : No<br>
Forced : No<br>
<br>
Menu<br>
01:27:46.260 : en:Credits</div>
</div><br>
<b>Screenshots</b><br>
<img src="https://i.imgur.com/qSDwKV8.png" class="bbCodeImage LbImage" alt="[​IMG]" data-url="https://i.imgur.com/qSDwKV8.png" style=""><br>
<br>
<b>Download</b><br>
<div class="bbCodeBlock bbCodeVfcHH HiddenContent">
<div class="attribution type">Hidden Content:</div>
<blockquote>You must reply before you can see the hidden data contained here.</blockquote>
</div></div>
<div class="messageTextEndMarker">&nbsp;</div>
</blockquote>
</article>]]></description>
                <author><![CDATA[Samuel]]></author>
                </item>

                
                <item>
                <title><![CDATA[【Requests】[REQ AUD] - [REQ AUD] DOLBY]]></title>
                <link><![CDATA[https://sharemania.us/threads/req-aud-dolby.247557/]]></link>
                <description><![CDATA[<article>
<blockquote class="messageText SelectQuoteContainer ugc baseHtml">
Ariana grande boy is mine remix brandy &amp; Monica Dolby atmos stems pls
<div class="messageTextEndMarker">&nbsp;</div>
</blockquote>
</article>]]></description>
                <author><![CDATA[izliz]]></author>
                </item>

                
                <item>
                <title><![CDATA[【UPSCALED】Outkast - Hey Ya! [4K AI Upscale | HEVC 10-bit | PCM x2 | DD+ Dolby Atmos]]]></title>
                <link><![CDATA[https://sharemania.us/threads/outkast-hey-ya-4k-ai-upscale-hevc-10-bit-pcm-x2-dd-dolby-atmos.247558/]]></link>
                <description><![CDATA[<article>
<blockquote class="messageText SelectQuoteContainer ugc baseHtml">
<img src="https://images2.imgbox.com/5b/ed/c98f3Oxj_o.jpg" class="bbCodeImage LbImage" alt="[​IMG]" data-url="https://images2.imgbox.com/5b/ed/c98f3Oxj_o.jpg" style=""> <br>
<br>
<b>Genre: <span style="color: #0059b3">Hip Hop</span> <br>
Style: <span style="color: #0059b3">Pop Rap</span> <br>
Year: <span style="color: #0059b3">2003</span> <br>
Video Source: <span style="color: #0059b3">Apple Music, HD remaster, thanks 2 SonMaxime</span><br>
Audio Source: <span style="color: #0059b3">Qobuz &amp; Apple Music, also thanks 2 SonMaxime</span></b><br>
<br>
"<b>Hey Ya!</b>" is a song by American hip hop duo Outkast, performed by its member André 3000, who wrote and produced the song. Along with "The Way You Move", recorded by Outkast's other member Big Boi, "Hey Ya!" was released by Arista Records as one of the two lead singles from the duo's fifth album, <i>Speakerboxxx/The Love Below</i>, on August 25, 2003. The track became a commercial success, reaching number one in the United States, Australia, Canada, the Czech Republic, Norway, and Sweden. "Hey Ya!" received critical acclaim upon release, and is consistently ranked as one of the greatest songs of the 2000s. The song was ranked number ten in <i>Rolling Stone</i>'s revised 2021 list of the "500 Greatest Songs of All Time".<br>
<br>
André 3000 wrote "Hey Ya!" in 2000 and began work on recording it in December 2002 at Stankonia Studios in Atlanta, Georgia. He used an acoustic guitar for accompaniment, inspired by bands such as the Ramones, Buzzcocks, the Hives, and the Smiths.<br>
André recorded the introduction, the first verse, the hook, and the vocals around the same time, using several dozen takes. He returned to work on the song several evenings later, with session musician Kevin Kendricks performing the bassline on the synthesizer. Months later, André 3000 worked with Pete Novak at the Larrabee Sound Studios in Los Angeles. They experimented with various sound effects, including singing through a vocoder, and did 30 to 40 takes for each line.<br>
<br>
The song's music video, directed by Bryan Barber, is conceptually similar to the video for former Beatle's Paul McCartney's song "Coming Up", but is also based on the Beatles' landmark appearance on <i>The Ed Sullivan Show</i> on February 9, 1964. However, it sets the action in London. The beginning and end of the video blend with those of "The Way You Move" so that the two can be watched in either order, and a "The Way You Move/Hey Ya!" video combining both clips with a bridging sequence was released on the <i>OutKast: The Videos</i> DVD.<br>
<br>
After listening to the song, Barber was inspired to create a video around the Beatles' appearance on Sullivan's show based on the song's musical structure, but André 3000 had never seen this footage. Barber showed the footage to André 3000 and came up with the idea of reversing the British Invasion, by having the American band the Love Below becoming popular on a British television program. The music video was filmed using motion control photography in two days in August 2003 on a sound stage at Universal Studios in Los Angeles, California. The cast included more than 100 women. Each of André 3000's parts was shot several times from different angles, and he performed the song 23 times during the course of filming. Because releasing "Hey Ya!" as a single was a last-minute decision, André did not have time to choreograph the parts, and all of the dancing was improvised. Ice Cold 3000's sequences were the first filmed, resulting in the character's energetic performance, and Johnny Vulture's were the last, so André, exhausted from the previous takes, sat on a stool for those sequences.<br>
<br>
In the video, André 3000 plays all eight members of the fictional band The Love Below: keyboardist Benjamin André, bassist Possum Aloysius Jenkins, vocalist André "Ice Cold" 3000, drummer Dookie Blossom Gain III, three backing vocalists the Love Haters, and guitarist Johnny Vulture.<br>
<br>
The video debuted on MTV's <i>Total Request Live</i> on September 5, 2003, at number 10. It topped the countdown for 19 days and retired at number eight on November 24, having spent 50 days on the program. At the 2004 MTV Video Music Awards, the video won four awards for Video of the Year, Best Hip-Hop Video, Best Special Effects, and Best Art Direction. It was also nominated for Best Direction but lost to Jay-Z's "99 Problems". . In Canada, the video topped MuchMusic's <i>Countdown</i> for the week beginning January 30, 2004, and it won the award for Best International Video by a group at the 2004 MuchMusic Video Awards. In 2006, Stylus Magazine listed it at number 72 on its "Top 100 Music Videos of All Time", comparing André 3000's dancing to James Brown's performances in the early 1970s.<br>
<br>
<b>Release Info</b><br>
The video track is upscaled to 4K with Topaz Video AI and encoded to HEVC 10-bit.<br>
The PCM tracks (Qobuz CD Quality, 16-bit) are synced with Adobe Audition.<br>
The Atmos track is synced by muxing (modified delay, no quality loss).<br>
The timed lyrics are synced. Enable the subtitles to see the lyrics.<br>
<br>
<b>This release contains 4 audio tracks:</b><br>
1). PCM 16-bit 44.1 kHz - Album version<br>
2). PCM 16-bit 44.1 kHz - Instrumental<br>
3). E-AC3 JOC 16-bit 48 kHz - Atmos Mix<br>
4). AAC 16-bit 48 kHz - Original audio track<br>
<br>
<div class="ToggleTriggerAnchor bbCodeSpoilerContainer">
<button type="button" class="button bbCodeSpoilerButton ToggleTrigger Tooltip JsOnly" data-target="> .SpoilerTarget"><span>Spoiler: <span class="SpoilerTitle">Media Info</span></span></button>
<div class="SpoilerTarget bbCodeSpoilerText">
<div class="bbCodeBlock bbCodeCode">
<div class="type">Code:</div>
<pre>General
Unique ID                      : 63590784624577631758145696334260618154 (0x2FD723BEC335C7899A26F422082643AA)
Complete name                  : Outkast - Hey Ya!.mkv
Format                         : Matroska
Format version                 : Version 4 / Version 2
File size                      : 654 MiB
Duration                       : 3 min 56 s
Overall bit rate               : 23.2 Mb/s
Frame rate                     : 29.970 FPS
Encoded date                   : 2024-06-21 09:27:53 UTC
Writing application            : mkvmerge v85.0 ('Shame For You') 64-bit
Writing library                : libebml v1.4.5 + libmatroska v1.7.1
Cover                          : Yes
Attachments                    : cover.jpg

Video
ID                             : 1
Format                         : HEVC
Format/Info                    : High Efficiency Video Coding
Format profile                 : Main 10@L5@Main
Codec ID                       : V_MPEGH/ISO/HEVC
Duration                       : 3 min 56 s
Bit rate                       : 19.4 Mb/s
Width                          : 2 888 pixels
Height                         : 2 160 pixels
Display aspect ratio           : 4:3
Frame rate mode                : Constant
Frame rate                     : 29.970 (30000/1001) FPS
Color space                    : YUV
Chroma subsampling             : 4:2:0
Bit depth                      : 10 bits
Bits/(Pixel*Frame)             : 0.104
Stream size                    : 546 MiB (83%)
Default                        : Yes
Forced                         : No
Color range                    : Limited
Color primaries                : BT.709
Transfer characteristics       : BT.709
Matrix coefficients            : BT.709

Audio #1
ID                             : 2
Format                         : PCM
Format settings                : Little / Signed
Codec ID                       : A_PCM/INT/LIT
Duration                       : 3 min 56 s
Bit rate mode                  : Constant
Bit rate                       : 1 411.2 kb/s
Channel(s)                     : 2 channels
Sampling rate                  : 44.1 kHz
Frame rate                     : 25.002 FPS (1764 SPF)
Bit depth                      : 16 bits
Stream size                    : 39.8 MiB (6%)
Title                          : Album Version
Language                       : English
Default                        : Yes
Forced                         : No

Audio #2
ID                             : 3
Format                         : PCM
Format settings                : Little / Signed
Codec ID                       : A_PCM/INT/LIT
Duration                       : 3 min 56 s
Bit rate mode                  : Constant
Bit rate                       : 1 411.2 kb/s
Channel(s)                     : 2 channels
Sampling rate                  : 44.1 kHz
Frame rate                     : 25.002 FPS (1764 SPF)
Bit depth                      : 16 bits
Stream size                    : 39.8 MiB (6%)
Title                          : Instrumental
Language                       : English
Default                        : No
Forced                         : No

Audio #3
ID                             : 4
Format                         : E-AC-3 JOC
Format/Info                    : Enhanced AC-3 with Joint Object Coding
Commercial name                : Dolby Digital Plus with Dolby Atmos
Codec ID                       : A_EAC3
Duration                       : 3 min 55 s
Bit rate mode                  : Constant
Bit rate                       : 768 kb/s
Channel(s)                     : 6 channels
Channel layout                 : L R C LFE Ls Rs
Sampling rate                  : 48.0 kHz
Frame rate                     : 31.250 FPS (1536 SPF)
Compression mode               : Lossy
Delay relative to video        : 590 ms
Stream size                    : 21.5 MiB (3%)
Title                          : Dolby Atmos
Language                       : English
Service kind                   : Complete Main
Default                        : No
Forced                         : No
Complexity index               : 16
Number of dynamic objects      : 15
Bed channel count              : 1 channel
Bed channel configuration      : LFE
Dialog Normalization           : -20 dB
compr                          : -0.28 dB
dmixmod                        : Lo/Ro
ltrtcmixlev                    : -3.0 dB
ltrtsurmixlev                  : -3.0 dB
lorocmixlev                    : -3.0 dB
lorosurmixlev                  : -3.0 dB
dialnorm_Average               : -20 dB
dialnorm_Minimum               : -20 dB
dialnorm_Maximum               : -20 dB

Audio #4
ID                             : 5
Format                         : AAC LC
Format/Info                    : Advanced Audio Codec Low Complexity
Codec ID                       : A_AAC-2
Duration                       : 3 min 56 s
Bit rate                       : 258 kb/s
Channel(s)                     : 2 channels
Channel layout                 : L R
Sampling rate                  : 48.0 kHz
Frame rate                     : 46.875 FPS (1024 SPF)
Compression mode               : Lossy
Stream size                    : 7.27 MiB (1%)
Title                          : Original Track
Language                       : English
Default                        : No
Forced                         : No

Text
ID                             : 6
Format                         : UTF-8
Codec ID                       : S_TEXT/UTF8
Codec ID/Info                  : UTF-8 Plain Text
Duration                       : 3 min 54 s
Bit rate                       : 73 b/s
Frame rate                     : 0.359 FPS
Count of elements              : 84
Stream size                    : 2.09 KiB (0%)
Title                          : Lyrics
Language                       : English
Default                        : No
Forced                         : No
</pre>
</div></div>
</div><br>
<b>Note to the peeps @ RuTracker: Give credit if you post the work of someone else!</b><br>
- Hurby4 aka ADHDerby<br>
<br>
<div class="bbCodeBlock bbCodeVfcHH HiddenContent">
<div class="attribution type">Hidden Content:</div>
<blockquote>You must reply before you can see the hidden data contained here.</blockquote>
</div>
<div class="messageTextEndMarker">&nbsp;</div>
</blockquote>
</article>]]></description>
                <author><![CDATA[ADHDerby]]></author>
                </item>

                </channel></rss>